<svg xmlns="http://www.w3.org/2000/svg" width="597.96" height="585.36" viewBox="0 0 1661 1626">
  <path fill-rule="evenodd" fill="currentColor" d="M1239,376l197,602h634l-3,4q-254.97,184.485-510,369,97.485,300.465,195,601c-9.53-7.1-16.66-18.63-24-28-13.75-17.55-30.11-33.22-44-51-39.15-50.13-85.6-94.72-125-145-21.61-27.58-47.26-52.17-69-80-7.44-9.53-19.91-17.51-25-29h-1q52.5,100.995,105,202-43.995-22.5-88-45Q1522,1880,1563,1984c-0.67-.33-1.33-0.67-2-1l-182-300,78,30q-63-119.49-126-239l1-1c32.26,10.81,49.21,23.77,75,38q-15.495-75.495-31-151c-11.19-45.4-10.77-67.81-39-96-6.36-6.35-13.09-14.42-22-18q-12-196.98-24-394-1.005-14.5-2-29a308.993,308.993,0,0,0-25-67c-5.85-11.353-10.71-26.219-27-27-21.73,11.384-29.31,41.476-38,66a267.287,267.287,0,0,0-11,43q-1.5,30.5-3,61-7.005,108.489-14,217-3,50.49-6,101c-1.58,9.24,2.5,23.75-3,29-14.39,18.36-34.8,27.26-45,51-8.66,20.16-9.41,44.82-15,68q-15,72.99-30,146c25.16-12.96,43.99-29.7,76-38v1q-63,119.49-126,239l78-30q-91.995,150.48-184,301,41-103.995,82-208-44,22.5-88,45,52.494-100.995,105-202h-1v2q-143.485,165.48-287,331v-3l145-446q18.5-57,37-114c3.422-9.79,14.774-31.48,11-40-11.047-4.11-19.852-14.51-29-21-28.36-20.13-55.971-41.03-84-61-81.986-58.41-162.293-118.84-244-177-34.366-24.46-67.922-49.75-102-74-16.073-11.44-40.182-22.4-52-38l635-1Q1141.485,676.531,1239,376Zm-6,614c37.8-1.807,42.65,41.84,15,51-20.4,6.76-40.73-12.96-34-33C1217.24,998.348,1224.98,995.01,1233,990Zm1,104c34.29-1.53,41.9,41.13,15,51-21.21,7.78-40.93-12.39-35-32C1217.34,1101.93,1224.89,1099.4,1234,1094Zm2,104c34.55-.78,38.51,44.54,10,52-21.04,5.51-37.53-14.83-32-33C1217.57,1205.26,1225.56,1203.06,1236,1198Zm-48,286q25.5,21.495,51,43l4-4c10.27-4.24,40.38-29.16,47-38,0.67,0.33,1.33.67,2,1q23.505,83.49,47,167l-35-6q18.495,131.49,37,263c2.57,12.62,15.28,84.24,12,92q-56.49-156.99-113-314h-1v2q-56.49,155.985-113,312h-1q24.99-177.48,50-355l-35,6Q1164,1568.505,1188,1484ZM915,1984c0.333,0.67.667,1.33,1,2C915.667,1985.33,915.333,1984.67,915,1984Zm648,0c0.33,0.67.67,1.33,1,2C1563.67,1985.33,1563.33,1984.67,1563,1984Z" transform="translate(-409 -376)"/>
</svg>
